# xmcd
#
# Track frame offsets: 
#        183
#        16250
#        29528
#        43493
#        54023
#        65205
#        78623
#        93553
#        103793
#        112270
#        121283
#        132150
#        142748
#        153223
#        165340
#        175813
#        188488
#        201165
#        214983
#        228433
#        239528
#        251850
#        264315
#        276613
#        287310
#
# Disc length: 3987 seconds
#
# Revision: 2
# Processed by: cddbd v1.5.2PL0 Copyright (c) Steve Scherf et al.
# Submitted via: ExactAudioCopyFreeDBPlugin 1.0
#
DISCID=6e0f9119
DTITLE=Various Artist - Lafayette Soul Show:  Original 60s Soul [Kent
DTITLE=]
DYEAR=1993
DGENRE=Soul
TTITLE0=Lil' Buck - Monkey in a Sack
TTITLE1=Lil' Buck - You've Got the Power
TTITLE2=Don Fredericks - I Stand Accused
TTITLE3=Don Fredericks - A Little Bit of Soap
TTITLE4=Don Fredericks - Big Boys Cry
TTITLE5=King Karl - Everybody's Feeling Good
TTITLE6=King Karl - Blues for Men
TTITLE7=King Karl - Got the Fever Child
TTITLE8=King Karl - Do You Like to See Me Cry
TTITLE9=Raful Neal - Getting Late in the Evening
TTITLE10=Raful Neal - Change My Way of Living
TTITLE11=John Hart - Burghers Beat (with Lil' Bob and The Lollipops)
TTITLE12=Lynn August - Little Red Rooster
TTITLE13=Jewel and The Rubies - I Need Your Love
TTITLE14=Jewel and The Rubies - Candy Ann
TTITLE15=Jewel and The Rubies - Days Go By
TTITLE16=Jewel and The Rubies - Kidnapper
TTITLE17=Lil' Buck - Cat Scream
TTITLE18=Lil' Bob and The Lollipops - Agent Double O Soul
TTITLE19=Lil' Bob and The Lollipops - Stop
TTITLE20=Lil' Bob and The Lollipops - Nobody But You
TTITLE21=Lil' Bob and The Lollipops - Out of Sight
TTITLE22=Lil' Bob and The Lollipops - Cry, Cry, Cry
TTITLE23=Lil' Bob and The Lollipops - Mule Train
TTITLE24=Lil' Bob and The Lollipops - I Got Loaded
EXTD=YEAR: 1993
EXTT0=
EXTT1=
EXTT2=
EXTT3=
EXTT4=
EXTT5=
EXTT6=
EXTT7=
EXTT8=
EXTT9=
EXTT10=
EXTT11=
EXTT12=
EXTT13=
EXTT14=
EXTT15=
EXTT16=
EXTT17=
EXTT18=
EXTT19=
EXTT20=
EXTT21=
EXTT22=
EXTT23=
EXTT24=
PLAYORDER=
